

<svg fill="none" viewBox="0 0 18 18" id="contacts_mail" xmlns="http://www.w3.org/2000/svg"><path d="M17.659 6.708a.212.212 0 0 1 .341.165v7.19c0 .931-.756 1.687-1.688 1.687H1.688A1.688 1.688 0 0 1 0 14.062V6.878c0-.176.2-.275.341-.166.788.612 1.832 1.389 5.418 3.994.741.541 1.993 1.68 3.241 1.674 1.255.01 2.531-1.154 3.245-1.674C15.83 8.1 16.872 7.32 17.659 6.708zM9 11.25c.816.014 1.99-1.027 2.58-1.455 4.666-3.386 5.02-3.681 6.097-4.525A.841.841 0 0 0 18 4.605v-.668c0-.931-.756-1.687-1.688-1.687H1.688C.756 2.25 0 3.006 0 3.938v.667c0 .26.12.503.323.665C1.4 6.11 1.754 6.409 6.42 9.795c.59.428 1.764 1.47 2.58 1.455z" fill="url(#aa)"/><defs><linearGradient id="aa" x1="9" y1="2.25" x2="9" y2="15.75" gradientUnits="userSpaceOnUse"><stop stop-color="#5FC9F3"/><stop offset="1" stop-color="#55ABF5"/></linearGradient></defs></svg>

<svg fill="none" viewBox="0 0 22 22" id="contacts_skype" xmlns="http://www.w3.org/2000/svg"><path d="M18.986 12.43c.088-.482.135-.977.135-1.47a8.08 8.08 0 0 0-2.378-5.738 8.073 8.073 0 0 0-2.58-1.74 8.063 8.063 0 0 0-3.159-.637 8.14 8.14 0 0 0-1.536.146 4.836 4.836 0 0 0-2.258-.563c-1.282 0-2.49.5-3.397 1.407a4.775 4.775 0 0 0-1.407 3.397c0 .816.21 1.62.604 2.329-.08.46-.122.93-.122 1.398 0 1.096.214 2.16.638 3.158a8.075 8.075 0 0 0 1.738 2.58 8.073 8.073 0 0 0 2.58 1.739 8.061 8.061 0 0 0 4.58.511 4.81 4.81 0 0 0 2.364.623c1.282 0 2.49-.498 3.396-1.407a4.766 4.766 0 0 0 1.408-3.397 4.779 4.779 0 0 0-.606-2.335zm-7.95 3.5c-2.883 0-4.172-1.417-4.172-2.479 0-.545.402-.926.956-.926 1.234 0 .916 1.773 3.216 1.773 1.18 0 1.831-.64 1.831-1.296 0-.393-.193-.831-.971-1.022l-2.565-.64C7.266 10.821 6.89 9.704 6.89 8.655c0-2.178 2.052-2.997 3.979-2.997 1.775 0 3.867.982 3.867 2.288 0 .56-.485.885-1.04.885-1.052 0-.86-1.456-2.98-1.456-1.052 0-1.635.477-1.635 1.158 0 .68.832.898 1.554 1.063l1.899.421c2.08.464 2.606 1.678 2.606 2.821 0 1.768-1.36 3.092-4.104 3.092z" fill="url(#ba)"/><defs><linearGradient id="ba" x1="10.999" y1="2.428" x2="10.999" y2="19.57" gradientUnits="userSpaceOnUse"><stop stop-color="#5FC9F3"/><stop offset="1" stop-color="#55ABF5"/></linearGradient></defs></svg>


<svg fill="none" viewBox="0 0 18 20" id="main_calendar" xmlns="http://www.w3.org/2000/svg"><g clip-path="url(#da)"><path d="M0 18.125C0 19.16.864 20 1.929 20H16.07c1.066 0 1.93-.84 1.93-1.875V7.5H0v10.625zm12.857-7.656c0-.258.217-.469.482-.469h1.607c.266 0 .483.21.483.469v1.562a.477.477 0 0 1-.483.469H13.34a.477.477 0 0 1-.482-.469V10.47zm0 5c0-.258.217-.469.482-.469h1.607c.266 0 .483.21.483.469v1.562a.477.477 0 0 1-.483.469H13.34a.477.477 0 0 1-.482-.469V15.47zm-5.143-5c0-.258.217-.469.482-.469h1.608c.265 0 .482.21.482.469v1.562a.477.477 0 0 1-.482.469H8.196a.477.477 0 0 1-.482-.469V10.47zm0 5c0-.258.217-.469.482-.469h1.608c.265 0 .482.21.482.469v1.562a.477.477 0 0 1-.482.469H8.196a.477.477 0 0 1-.482-.469V15.47zm-5.143-5c0-.258.217-.469.483-.469H4.66c.265 0 .482.21.482.469v1.562a.477.477 0 0 1-.482.469H3.054a.477.477 0 0 1-.483-.469V10.47zm0 5c0-.258.217-.469.483-.469H4.66c.265 0 .482.21.482.469v1.562a.477.477 0 0 1-.482.469H3.054a.477.477 0 0 1-.483-.469V15.47zM16.071 2.5h-1.928V.625A.636.636 0 0 0 13.5 0h-1.286a.636.636 0 0 0-.643.625V2.5H6.43V.625A.636.636 0 0 0 5.786 0H4.5a.636.636 0 0 0-.643.625V2.5H1.93C.864 2.5 0 3.34 0 4.375V6.25h18V4.375C18 3.34 17.136 2.5 16.071 2.5z" fill="#fff"/></g><defs><clipPath id="da"><path fill="#fff" d="M0 0h18v20H0z"/></clipPath></defs></svg>

<svg fill="none" viewBox="0 0 20 20" id="main_diving" xmlns="http://www.w3.org/2000/svg"><path d="M16.9 2.217c-.833-.184-1.45-1.175-2.258-1.35-.809-.175-1.809.458-2.625.275a3.05 3.05 0 0 0-2.617.283l-.058 11.908-.175.834a2.504 2.504 0 0 0 1.908 2.983 2.506 2.506 0 0 0 2.975-1.908l.175-.834 4.942-10.841a3.024 3.024 0 0 0-2.267-1.35zm-4.475 12.666a.86.86 0 0 1-1.008.659.847.847 0 0 1-.659-1.017l.717-3.275a.834.834 0 0 1 1.642.283c0 .034-.009.059-.017.092l-.675 3.258zM8.1 16.95a3.906 3.906 0 0 1-.6-1.667L6.867 12.5c-.117-.442.141-.9.633-1.033a.67.67 0 0 1 .183 0V2.025c-.758 0-1.666-.475-2.366-.308-.7.166-1.409 1.15-2.217 1.333A3.025 3.025 0 0 0 .833 4.4l4.942 10.833.175.834a2.502 2.502 0 0 0 2.975 1.908h.083A3.94 3.94 0 0 1 8.1 16.95z" fill="#fff"/></svg>

<svg fill="none" viewBox="0 0 26 26" id="main_header_facebook" xmlns="http://www.w3.org/2000/svg"><g clip-path="url(#fa)"><path d="M20.719.25c1.317 0 2.443.468 3.378 1.403S25.5 3.714 25.5 5.03v15.94c0 1.317-.468 2.443-1.403 3.378s-2.061 1.403-3.378 1.403h-3.121v-9.878H20.9l.498-3.851h-3.801V9.563c0-.62.13-1.084.39-1.394.26-.31.766-.465 1.519-.465l2.025-.016V4.25c-.697-.1-1.682-.15-2.955-.15-1.505 0-2.709.443-3.61 1.329-.903.885-1.354 2.136-1.354 3.752v2.838h-3.32v3.852h3.32v9.878H4.781c-1.317 0-2.443-.468-3.378-1.403S0 22.286 0 20.97V5.03c0-1.317.468-2.443 1.403-3.378S3.464.25 4.78.25h15.94z" fill="#fff"/></g><defs><clipPath id="fa"><path fill="#fff" transform="translate(0 .25)" d="M0 0h25.5v25.5H0z"/></clipPath></defs></svg>

<svg width="26" height="26" fill="none" xmlns="http://www.w3.org/2000/svg"><g clip-path="url(#clip0_4226_815)"><path d="M12.747 8.498a4.26 4.26 0 00-4.252 4.252 4.26 4.26 0 004.252 4.252 4.26 4.26 0 004.251-4.252 4.26 4.26 0 00-4.251-4.252zm12.752 4.252c0-1.76.016-3.505-.083-5.263-.1-2.041-.565-3.853-2.058-5.346C21.862.645 20.054.183 18.013.084 16.252-.015 14.507 0 12.75 0c-1.76 0-3.506-.016-5.263.083-2.041.1-3.853.565-5.347 2.057C.645 3.637.183 5.446.084 7.487-.015 9.247 0 10.992 0 12.75s-.016 3.505.083 5.263c.099 2.041.564 3.853 2.057 5.346 1.496 1.496 3.305 1.958 5.346 2.057 1.76.099 3.505.083 5.263.083 1.76 0 3.505.016 5.263-.083 2.04-.099 3.853-.564 5.345-2.057 1.496-1.496 1.959-3.305 2.058-5.346.102-1.758.083-3.502.083-5.263zm-12.752 6.542a6.533 6.533 0 01-6.542-6.542 6.533 6.533 0 016.542-6.542 6.533 6.533 0 016.541 6.542 6.533 6.533 0 01-6.541 6.542zm6.81-11.824a1.526 1.526 0 01-1.528-1.528c0-.845.682-1.528 1.527-1.528a1.526 1.526 0 011.412 2.113 1.526 1.526 0 01-1.412.943z" fill="#fff"/></g><defs><clipPath id="clip0_4226_815"><path fill="#fff" d="M0 0h25.5v25.5H0z"/></clipPath></defs></svg>

<svg fill="none" viewBox="0 0 26 26" id="main_header_vk" xmlns="http://www.w3.org/2000/svg"><g clip-path="url(#ha)"><path d="M16.664.25H8.836C1.69.25 0 1.942 0 9.086v7.828c0 7.144 1.692 8.836 8.836 8.836h7.828c7.144 0 8.836-1.692 8.836-8.836V9.086C25.5 1.94 23.79.25 16.664.25zm3.923 18.193h-1.853c-.701 0-.918-.558-2.178-1.835-1.098-1.062-1.583-1.206-1.853-1.206-.378 0-.487.109-.487.63v1.674c0 .45-.143.72-1.331.72-1.961 0-4.14-1.188-5.668-3.402-2.304-3.238-2.935-5.668-2.935-6.172 0-.27.108-.522.63-.522h1.853c.467 0 .648.216.829.72.917 2.645 2.447 4.967 3.077 4.967.233 0 .342-.109.342-.701v-2.737c-.072-1.26-.739-1.368-.739-1.817 0-.217.181-.433.468-.433h2.915c.397 0 .54.216.54.683v3.69c0 .396.18.54.288.54.234 0 .433-.144.864-.576 1.332-1.494 2.285-3.797 2.285-3.797.127-.27.342-.522.811-.522h1.853c.558 0 .684.287.558.684-.234 1.08-2.501 4.282-2.501 4.282-.198.324-.27.468 0 .83.197.27.845.827 1.278 1.33.791.9 1.402 1.656 1.565 2.179.18.52-.09.79-.612.79l.001.001z" fill="#fff"/></g><defs><clipPath id="ha"><path fill="#fff" transform="translate(0 .25)" d="M0 0h25.5v25.5H0z"/></clipPath></defs></svg>

<svg fill="none" viewBox="0 0 24 24" id="main_sertificate" xmlns="http://www.w3.org/2000/svg"><path d="M14 2H7a2 2 0 0 0-2 2v14a2 2 0 0 0 2 2h3v3l2-1 2 1v-3h3a2 2 0 0 0 2-2V7l-5-5zm0 13v2l-2-1-2 1v-2l-2-1 2-1v-2l2 1 2-1v2l2 1-2 1zm-1-7V3.5L17.5 8H13z" fill="#fff"/></svg>

<svg fill="none" viewBox="0 0 24 24" id="main_sign" xmlns="http://www.w3.org/2000/svg"><path d="M12 3c5.5 0 10 3.58 10 8s-4.5 8-10 8c-1.24 0-2.43-.18-3.53-.5C5.55 21 2 21 2 21c2.33-2.33 2.7-3.9 2.75-4.5C3.05 15.07 2 13.13 2 11c0-4.42 4.5-8 10-8z" fill="#fff"/></svg>

<svg fill="none" viewBox="0 0 23 17" id="main_student" xmlns="http://www.w3.org/2000/svg"><g clip-path="url(#ka)"><path d="M23 16.292a.676.676 0 0 1-.213.498.696.696 0 0 1-.506.21.696.696 0 0 1-.505-.21.676.676 0 0 1-.213-.498v-9.32l-7.93 3.919c-.598.295-1.31.442-2.133.442-.824 0-1.535-.147-2.134-.442L.876 6.707C.292 6.412 0 6.061 0 5.656c0-.406.292-.75.876-1.03L9.366.443C9.966.148 10.676 0 11.5 0c.824 0 1.535.148 2.134.443l8.49 4.183c.51.251.794.561.854.93.014.015.022.044.022.089v10.647zm-8.648-3.985 4.335-2.147v3.121c0 .635-.7 1.177-2.1 1.627-1.4.45-3.095.675-5.087.675-1.992 0-3.687-.225-5.087-.675-1.4-.45-2.1-.992-2.1-1.627v-3.12l4.334 2.146c.6.295 1.55.443 2.853.443 1.303 0 2.254-.148 2.852-.443z" fill="#fff"/></g><defs><clipPath id="ka"><path fill="#fff" d="M0 0h23v17H0z"/></clipPath></defs></svg>

<svg fill="none" viewBox="0 0 102 102" id="subscribe_facebook" xmlns="http://www.w3.org/2000/svg"><g clip-path="url(#la)"><path d="M101.991 51c0-28.169-22.83-51-50.995-51S0 22.831 0 51c0 25.449 18.649 46.546 43.027 50.371V65.739H30.081V50.996h12.946V39.763c0-12.784 7.616-19.843 19.261-19.843 5.58 0 11.416.994 11.416.994v12.55h-6.426c-6.333 0-8.31 3.932-8.31 7.965V51h14.145l-2.261 14.743H58.969v35.632C83.347 97.55 101.996 76.453 101.996 51h-.005z" fill="url(#lb)"/></g><defs><linearGradient id="lb" x1="50.998" y1="0" x2="50.998" y2="101.375" gradientUnits="userSpaceOnUse"><stop stop-color="#5FC9F3"/><stop offset="1" stop-color="#55ABF5"/></linearGradient><clipPath id="la"><path fill="#fff" d="M0 0h102v102H0z"/></clipPath></defs></svg>

<svg fill="none" viewBox="0 0 102 102" id="subscribe_forum" xmlns="http://www.w3.org/2000/svg"><g clip-path="url(#ma)"><path d="M1.32 62.237C.456 58.385 0 54.488 0 50.59 0 22.656 22.722 0 50.795 0c3.78 0 7.582.453 11.225 1.246-28.096 10.649-50.204 32.965-60.7 60.99zM90.776 19.37A50.174 50.174 0 0 0 79.892 9.108C45.832 19.145 19.262 45.834 9.38 79.795c2.846 4.101 6.375 8.066 10.291 11.102C29.484 56.618 56.373 29.34 90.775 19.37zm3.598 57.252a49.788 49.788 0 0 0 6.716-18.759c-18.077 9.72-33.013 25.058-42.712 43.115 6.83-.997 13.41-3.466 19.261-7.091A242.376 242.376 0 0 0 102 101.5c-2.117-8.27-4.645-16.879-7.627-24.877zm6.762-32.964a47.94 47.94 0 0 0-3.598-12.87c-31.396 10.377-56.1 35.48-66.322 66.86 4.12 1.721 8.424 2.831 12.886 3.443 10.542-25.85 31.147-46.853 57.034-57.433z" fill="url(#mb)"/></g><defs><linearGradient id="mb" x1="51" y1="0" x2="51" y2="101.5" gradientUnits="userSpaceOnUse"><stop stop-color="#5FC9F3"/><stop offset="1" stop-color="#55ABF5"/></linearGradient><clipPath id="ma"><path fill="#fff" d="M0 0h102v102H0z"/></clipPath></defs></svg>

<svg fill="none" viewBox="0 0 102 102" id="subscribe_vk" xmlns="http://www.w3.org/2000/svg"><path d="M51 2.04C23.96 2.04 2.04 23.96 2.04 51S23.96 99.96 51 99.96 99.96 78.04 99.96 51 78.04 2.04 51 2.04zm18.83 55.238s4.33 4.273 5.395 6.257c.03.041.046.082.056.102.434.73.536 1.296.322 1.719-.357.704-1.581 1.05-2 1.081h-7.65c-.53 0-1.642-.137-2.988-1.066-1.036-.724-2.056-1.912-3.05-3.07-1.484-1.724-2.77-3.213-4.065-3.213a1.56 1.56 0 0 0-.484.077c-.98.316-2.234 1.713-2.234 5.436 0 1.163-.918 1.831-1.566 1.831h-3.503c-1.194 0-7.41-.418-12.919-6.227-6.742-7.114-12.81-21.384-12.862-21.517-.382-.923.408-1.418 1.27-1.418h7.727c1.03 0 1.366.628 1.6 1.183.276.648 1.286 3.224 2.944 6.12 2.687 4.723 4.335 6.64 5.655 6.64.248-.002.491-.065.71-.183 1.723-.959 1.402-7.104 1.325-8.38 0-.239-.005-2.748-.887-3.952-.632-.872-1.709-1.203-2.361-1.326a2.81 2.81 0 0 1 1.015-.862c1.183-.591 3.315-.678 5.431-.678h1.178c2.295.03 2.887.179 3.718.388 1.683.403 1.719 1.489 1.57 5.207a81.107 81.107 0 0 0-.09 3.657c0 .306-.016.632-.016.979-.051 1.892-.112 4.039 1.224 4.921.174.11.375.168.581.169.464 0 1.862 0 5.646-6.493a49.57 49.57 0 0 0 3.034-6.497c.077-.133.301-.54.567-.699.195-.1.412-.15.632-.148h9.083c.99 0 1.668.148 1.795.53.225.608-.04 2.459-4.187 8.074l-1.851 2.443c-3.759 4.926-3.759 5.176.234 8.915z" fill="url(#na)"/><defs><linearGradient id="na" x1="51" y1="2.04" x2="51" y2="99.96" gradientUnits="userSpaceOnUse"><stop stop-color="#5FC9F3"/><stop offset="1" stop-color="#55ABF5"/></linearGradient></defs></svg>

<svg fill="none" viewBox="0 0 18 19" id="test_user" xmlns="http://www.w3.org/2000/svg"><path d="M4.5 4.5C4.5 6.981 6.519 9 9 9s4.5-2.019 4.5-4.5S11.481 0 9 0a4.505 4.505 0 0 0-4.5 4.5zM17 19h1v-1c0-3.859-3.141-7-7-7H7c-3.86 0-7 3.141-7 7v1h17z" fill="#fff"/></svg><svg fill="none" viewBox="0 0 44 44" id="training_gift" xmlns="http://www.w3.org/2000/svg"><path d="M6.875 38.414c0 .76.614 1.375 1.375 1.375h12.29V23.633H6.874v14.781zm16.586 1.375H35.75c.76 0 1.375-.614 1.375-1.375V23.633H23.461v16.156zM37.813 13.32H31.47c.585-.92.928-2.01.928-3.18 0-3.27-2.66-5.93-5.93-5.93-1.778 0-3.38.792-4.468 2.038a5.923 5.923 0 0 0-4.469-2.037c-3.27 0-5.93 2.66-5.93 5.93 0 1.168.34 2.26.929 3.18H6.188c-.761 0-1.375.614-1.375 1.374v6.016h15.726v-7.39h2.922v7.39h15.727v-6.016c0-.76-.615-1.375-1.376-1.375zm-17.274-.172h-3.008a3.011 3.011 0 0 1-3.008-3.007 3.011 3.011 0 0 1 3.008-3.008 3.011 3.011 0 0 1 3.008 3.008v3.007zm5.93 0H23.46v-3.007a3.011 3.011 0 0 1 3.008-3.008 3.011 3.011 0 0 1 3.008 3.008 3.011 3.011 0 0 1-3.008 3.007z" fill="#fff"/></svg>

<svg fill="none" viewBox="0 0 76 60" id="training_pool" xmlns="http://www.w3.org/2000/svg"><path d="M74.1 49h-1.9c-3.092 0-5.439-.987-6.66-2.098-1.058-.962-2.335-1.652-3.773-1.652H59.83c-1.438 0-2.716.69-3.773 1.652C54.838 48.013 52.492 49 49.4 49s-5.439-.987-6.66-2.098c-1.058-.962-2.335-1.652-3.773-1.652H37.03c-1.438 0-2.716.69-3.773 1.652C32.038 48.013 29.692 49 26.6 49s-5.439-.987-6.66-2.098c-1.058-.962-2.335-1.652-3.773-1.652H14.23c-1.438 0-2.716.69-3.773 1.652C9.238 48.013 6.892 49 3.8 49H1.9C.85 49 0 49.84 0 50.875v3.75C0 55.661.85 56.5 1.9 56.5h1.9c4.586 0 8.636-1.428 11.4-3.731 2.765 2.304 6.814 3.731 11.4 3.731s8.636-1.428 11.4-3.731c2.764 2.304 6.814 3.731 11.4 3.731s8.636-1.428 11.4-3.731c2.765 2.304 6.814 3.731 11.4 3.731h1.9c1.05 0 1.9-.84 1.9-1.875v-3.75C76 49.839 75.15 49 74.1 49zm-47.5-3.75V34h22.8v11.25c2.27 0 3.665-.722 4.084-1.104A10.291 10.291 0 0 1 57 42.03V15.25c0-2.067 1.705-3.75 3.8-3.75 2.095 0 3.8 1.683 3.8 3.75v1.875c0 1.036.85 1.875 1.9 1.875h3.8c1.05 0 1.9-.84 1.9-1.875V15.25C72.2 9.046 67.087 4 60.8 4S49.4 9.046 49.4 15.25V26.5H26.6V15.25c0-2.067 1.705-3.75 3.8-3.75 2.095 0 3.8 1.683 3.8 3.75v1.875c0 1.036.85 1.875 1.9 1.875h3.8c1.05 0 1.9-.84 1.9-1.875V15.25C41.8 9.046 36.687 4 30.4 4S19 9.046 19 15.25v26.777a10.312 10.312 0 0 1 3.516 2.118c.42.383 1.814 1.105 4.084 1.105z" fill="url(#qa)"/><defs><linearGradient id="qa" x1="38" y1="4" x2="38" y2="56.5" gradientUnits="userSpaceOnUse"><stop stop-color="#5FC9F3"/><stop offset="1" stop-color="#55ABF5"/></linearGradient></defs></svg>

<svg fill="none" viewBox="0 0 81 81" id="training_price" xmlns="http://www.w3.org/2000/svg"><path d="M65.421 13H44.796c-1.416 0-3.4.822-4.4 1.822L14.825 40.394a2.585 2.585 0 0 0 0 3.647l22.134 22.134a2.585 2.585 0 0 0 3.647 0l25.571-25.572C67.181 39.6 68 37.62 68 36.203V15.578A2.588 2.588 0 0 0 65.421 13zm-12.89 20.625a5.158 5.158 0 1 1 .002-10.316 5.158 5.158 0 0 1-.002 10.316z" fill="url(#ra)"/><defs><linearGradient id="ra" x1="41.036" y1="13" x2="41.036" y2="66.928" gradientUnits="userSpaceOnUse"><stop stop-color="#5FC9F3"/><stop offset="1" stop-color="#55ABF5"/></linearGradient></defs></svg>

<svg fill="none" viewBox="0 0 44 44" id="training_sign" xmlns="http://www.w3.org/2000/svg"><path d="M11 3.667a3.654 3.654 0 0 0-3.667 3.666v29.334A3.667 3.667 0 0 0 11 40.333h7.334v-3.501L22.165 33H11v-3.667h14.832l3.666-3.666H11V22h22.165l3.502-3.502v-3.831l-11-11H11zm12.834 2.75L33.916 16.5H23.833V6.417zm13.108 17.416a1.01 1.01 0 0 0-.733.294l-1.87 1.87 3.831 3.813 1.87-1.852c.385-.403.385-1.063 0-1.448l-2.383-2.383a.997.997 0 0 0-.715-.294zm-3.685 3.245L22 38.353v3.814h3.814l11.275-11.275-3.832-3.814z" fill="#fff"/></svg>

<svg fill="none" viewBox="0 0 80 76" id="training_test" xmlns="http://www.w3.org/2000/svg"><path d="M60.24 32.999H33.56c-2.54 0-2.76 2.056-2.76 4.6 0 2.544.22 4.6 2.76 4.6h26.68c2.539 0 2.76-2.056 2.76-4.6 0-2.544-.221-4.6-2.76-4.6zm9.2 23H33.56c-2.54 0-2.76 2.056-2.76 4.6 0 2.544.22 4.6 2.76 4.6h35.88c2.539 0 2.76-2.056 2.76-4.6 0-2.544-.221-4.6-2.76-4.6zm-35.88-36.8h35.88c2.539 0 2.76-2.056 2.76-4.6 0-2.544-.221-4.6-2.76-4.6H33.56c-2.54 0-2.76 2.056-2.76 4.6 0 2.544.22 4.6 2.76 4.6zm-14.72 13.8h-8.28c-2.54 0-2.76 2.056-2.76 4.6 0 2.544.22 4.6 2.76 4.6h8.28c2.539 0 2.76-2.056 2.76-4.6 0-2.544-.221-4.6-2.76-4.6zm0 23h-8.28c-2.54 0-2.76 2.056-2.76 4.6 0 2.544.22 4.6 2.76 4.6h8.28c2.539 0 2.76-2.056 2.76-4.6 0-2.544-.221-4.6-2.76-4.6zm0-46h-8.28c-2.54 0-2.76 2.056-2.76 4.6 0 2.544.22 4.6 2.76 4.6h8.28c2.539 0 2.76-2.056 2.76-4.6 0-2.544-.221-4.6-2.76-4.6z" fill="url(#ta)"/><defs><linearGradient id="ta" x1="40" y1="9.999" x2="40" y2="65.199" gradientUnits="userSpaceOnUse"><stop stop-color="#5FC9F3"/><stop offset="1" stop-color="#55ABF5"/></linearGradient></defs></svg>

<svg fill="none" viewBox="0 0 80 80" id="training_water" xmlns="http://www.w3.org/2000/svg"><path d="M68.552 53.49c-2.24-.254-4.385-1.108-6.031-2.416-1.469-1.17-3.563-1.192-5.021 0-3.948 3.206-11.167 3.206-15.177-.158-1.406-1.181-3.438-.96-4.865.19-3.958 3.174-11.135 3.164-15.125-.18-1.406-1.18-3.468-.938-4.906.211-1.614 1.287-3.75 2.12-6.01 2.363-.823.084-1.417.822-1.417 1.656v3.396c0 .96.792 1.772 1.74 1.687 3-.263 5.843-1.202 8.27-2.731 5.886 3.649 14.271 3.596 20 0 5.886 3.649 14.271 3.596 20 0 2.428 1.497 5.303 2.457 8.24 2.72.948.085 1.74-.727 1.74-1.687v-3.333c.01-.843-.594-1.624-1.438-1.719zm0-15.188c-2.24-.253-4.385-1.108-6.031-2.416-1.469-1.17-3.563-1.191-5.021 0-3.948 3.207-11.167 3.207-15.177-.158-1.406-1.181-3.438-.96-4.865.19-3.958 3.175-11.135 3.164-15.125-.18-1.406-1.18-3.468-.938-4.906.212-1.614 1.286-3.75 2.12-6.01 2.362-.823.085-1.417.823-1.417 1.656v3.396c0 .96.792 1.772 1.74 1.688 3-.264 5.843-1.203 8.27-2.732 5.886 3.65 14.271 3.597 20 0 5.886 3.65 14.271 3.597 20 0 2.428 1.498 5.303 2.458 8.24 2.721.948.085 1.74-.727 1.74-1.687V40.02c.01-.844-.594-1.624-1.438-1.72zm0-15.188c-2.24-.263-4.385-1.107-6.031-2.415-1.469-1.17-3.563-1.192-5.021 0-3.948 3.206-11.167 3.206-15.177-.158-1.406-1.181-3.438-.96-4.865.19-3.958 3.174-11.135 3.164-15.125-.18-1.406-1.18-3.468-.938-4.906.211-1.614 1.287-3.75 2.12-6.01 2.363-.823.084-1.417.822-1.417 1.656v3.396c0 .96.792 1.772 1.74 1.687 3-.263 5.843-1.202 8.27-2.731 5.886 3.649 14.271 3.596 20 0 5.886 3.649 14.271 3.596 20 0 2.428 1.497 5.303 2.457 8.24 2.72.948.085 1.74-.727 1.74-1.687v-3.333c.01-.843-.594-1.624-1.438-1.719z" fill="url(#ua)"/><defs><linearGradient id="ua" x1="39.995" y1="19.755" x2="39.995" y2="60.245" gradientUnits="userSpaceOnUse"><stop stop-color="#5FC9F3"/><stop offset="1" stop-color="#55ABF5"/></linearGradient></defs></svg>

</svg>